<svg xmlns="http://www.w3.org/2000/svg" xmlns:xlink="http://www.w3.org/1999/xlink" contentStyleType="text/css" height="394px" preserveAspectRatio="none" style="width:268px;height:394px;background:#FFFFFF;" version="1.1" viewBox="0 0 268 394" width="268px" zoomAndPan="magnify"><defs/><g><!--class Office--><g id="elem_Office"><rect codeLine="1" fill="#F1F1F1" height="80.5938" id="Office" rx="2.5" ry="2.5" style="stroke:#181818;stroke-width:0.5;" width="254.2998" x="7" y="7"/><ellipse cx="109.3613" cy="23" fill="#ADD1B2" rx="11" ry="11" style="stroke:#181818;stroke-width:1.0;"/><path d="M112.3301,28.6406 Q111.752,28.9375 111.1113,29.0781 Q110.4707,29.2344 109.7676,29.2344 Q107.2676,29.2344 105.9395,27.5938 Q104.627,25.9375 104.627,22.8125 Q104.627,19.6875 105.9395,18.0313 Q107.2676,16.375 109.7676,16.375 Q110.4707,16.375 111.1113,16.5313 Q111.7676,16.6875 112.3301,16.9844 L112.3301,19.7031 Q111.7051,19.125 111.1113,18.8594 Q110.5176,18.5781 109.8926,18.5781 Q108.5488,18.5781 107.8613,19.6563 Q107.1738,20.7188 107.1738,22.8125 Q107.1738,24.9063 107.8613,25.9844 Q108.5488,27.0469 109.8926,27.0469 Q110.5176,27.0469 111.1113,26.7813 Q111.7051,26.5 112.3301,25.9219 L112.3301,28.6406 Z " fill="#000000"/><text fill="#000000" font-family="sans-serif" font-size="14" lengthAdjust="spacing" textLength="41.0771" x="129.8613" y="27.8467">Office</text><line style="stroke:#181818;stroke-width:0.5;" x1="8" x2="260.2998" y1="39" y2="39"/><ellipse cx="18" cy="52.6484" fill="none" rx="3" ry="3" style="stroke:#038048;stroke-width:1.0;"/><text fill="#000000" font-family="sans-serif" font-size="14" lengthAdjust="spacing" textLength="90.6514" x="27" y="55.9951">name: String</text><line style="stroke:#181818;stroke-width:0.5;" x1="8" x2="260.2998" y1="63.2969" y2="63.2969"/><ellipse cx="18" cy="76.9453" fill="#84BE84" rx="3" ry="3" style="stroke:#038048;stroke-width:1.0;"/><text fill="#000000" font-family="sans-serif" font-size="14" lengthAdjust="spacing" textLength="228.2998" x="27" y="80.292">print_document(doc: Document)</text></g><!--class Printer--><g id="elem_Printer"><rect codeLine="6" fill="#F1F1F1" height="80.5938" id="Printer" rx="2.5" ry="2.5" style="stroke:#181818;stroke-width:0.5;" width="176.6641" x="45.5" y="165"/><ellipse cx="106.1724" cy="181" fill="#ADD1B2" rx="11" ry="11" style="stroke:#181818;stroke-width:1.0;"/><path d="M109.1411,186.6406 Q108.563,186.9375 107.9224,187.0781 Q107.2817,187.2344 106.5786,187.2344 Q104.0786,187.2344 102.7505,185.5938 Q101.438,183.9375 101.438,180.8125 Q101.438,177.6875 102.7505,176.0313 Q104.0786,174.375 106.5786,174.375 Q107.2817,174.375 107.9224,174.5313 Q108.5786,174.6875 109.1411,174.9844 L109.1411,177.7031 Q108.5161,177.125 107.9224,176.8594 Q107.3286,176.5781 106.7036,176.5781 Q105.3599,176.5781 104.6724,177.6563 Q103.9849,178.7188 103.9849,180.8125 Q103.9849,182.9063 104.6724,183.9844 Q105.3599,185.0469 106.7036,185.0469 Q107.3286,185.0469 107.9224,184.7813 Q108.5161,184.5 109.1411,183.9219 L109.1411,186.6406 Z " fill="#000000"/><text fill="#000000" font-family="sans-serif" font-size="14" lengthAdjust="spacing" textLength="46.8193" x="126.6724" y="185.8467">Printer</text><line style="stroke:#181818;stroke-width:0.5;" x1="46.5" x2="221.1641" y1="197" y2="197"/><ellipse cx="56.5" cy="210.6484" fill="none" rx="3" ry="3" style="stroke:#038048;stroke-width:1.0;"/><text fill="#000000" font-family="sans-serif" font-size="14" lengthAdjust="spacing" textLength="94.541" x="65.5" y="213.9951">model: String</text><line style="stroke:#181818;stroke-width:0.5;" x1="46.5" x2="221.1641" y1="221.2969" y2="221.2969"/><ellipse cx="56.5" cy="234.9453" fill="#84BE84" rx="3" ry="3" style="stroke:#038048;stroke-width:1.0;"/><text fill="#000000" font-family="sans-serif" font-size="14" lengthAdjust="spacing" textLength="150.6641" x="65.5" y="238.292">print(doc: Document)</text></g><!--class Document--><g id="elem_Document"><rect codeLine="11" fill="#F1F1F1" height="64.2969" id="Document" rx="2.5" ry="2.5" style="stroke:#181818;stroke-width:0.5;" width="130.5488" x="68.5" y="323"/><ellipse cx="95.2088" cy="339" fill="#ADD1B2" rx="11" ry="11" style="stroke:#181818;stroke-width:1.0;"/><path d="M98.1775,344.6406 Q97.5994,344.9375 96.9588,345.0781 Q96.3182,345.2344 95.615,345.2344 Q93.115,345.2344 91.7869,343.5938 Q90.4744,341.9375 90.4744,338.8125 Q90.4744,335.6875 91.7869,334.0313 Q93.115,332.375 95.615,332.375 Q96.3182,332.375 96.9588,332.5313 Q97.615,332.6875 98.1775,332.9844 L98.1775,335.7031 Q97.5525,335.125 96.9588,334.8594 Q96.365,334.5781 95.74,334.5781 Q94.3963,334.5781 93.7088,335.6563 Q93.0213,336.7188 93.0213,338.8125 Q93.0213,340.9063 93.7088,341.9844 Q94.3963,343.0469 95.74,343.0469 Q96.365,343.0469 96.9588,342.7813 Q97.5525,342.5 98.1775,341.9219 L98.1775,344.6406 Z " fill="#000000"/><text fill="#000000" font-family="sans-serif" font-size="14" lengthAdjust="spacing" textLength="72.5293" x="111.8107" y="343.8467">Document</text><line style="stroke:#181818;stroke-width:0.5;" x1="69.5" x2="198.0488" y1="355" y2="355"/><ellipse cx="79.5" cy="368.6484" fill="none" rx="3" ry="3" style="stroke:#038048;stroke-width:1.0;"/><text fill="#000000" font-family="sans-serif" font-size="14" lengthAdjust="spacing" textLength="104.5488" x="88.5" y="371.9951">content: String</text><line style="stroke:#181818;stroke-width:0.5;" x1="69.5" x2="198.0488" y1="379.2969" y2="379.2969"/></g><!--link Office to Printer--><g id="link_Office_Printer"><path codeLine="15" d="M134,88.27 C134,111.74 134,135.35 134,158.8 " fill="none" id="Office-to-Printer" style="stroke:#181818;stroke-width:1.0;stroke-dasharray:7.0,7.0;"/><polygon fill="#181818" points="134,164.8,138,155.8,134,159.8,130,155.8,134,164.8" style="stroke:#181818;stroke-width:1.0;"/><text fill="#000000" font-family="sans-serif" font-size="13" lengthAdjust="spacing" textLength="29.7832" x="135" y="131.0669">uses</text></g><!--link Printer to Document--><g id="link_Printer_Document"><path codeLine="16" d="M134,246.03 C134,270.09 134,294.4 134,316.78 " fill="none" id="Printer-to-Document" style="stroke:#181818;stroke-width:1.0;stroke-dasharray:7.0,7.0;"/><polygon fill="#181818" points="134,322.78,138,313.78,134,317.78,130,313.78,134,322.78" style="stroke:#181818;stroke-width:1.0;"/><text fill="#000000" font-family="sans-serif" font-size="13" lengthAdjust="spacing" textLength="37.3179" x="135" y="289.0669">prints</text></g><!--SRC=[Iyv9B2vMy4zBoqnELQZcKW02xRp4t5GhXU2IeioyT8X80P1P4f-IdroQcvfNeW5aM2cuG7cQNBLSNCbWOm90obABOERavgUavc0n2AT-c13CWEHye75v9N0ZW0gXBjNJiuFRPgLGMfnQp0NZWgJW1bafW6qi1W00]--></g></svg>