<svg xmlns="http://www.w3.org/2000/svg" xmlns:xlink="http://www.w3.org/1999/xlink" contentStyleType="text/css" height="268px" preserveAspectRatio="none" style="width:190px;height:268px;background:#FFFFFF;" version="1.1" viewBox="0 0 190 268" width="190px" zoomAndPan="magnify"><defs/><g><!--class Library--><g id="elem_Library"><rect codeLine="1" fill="#F1F1F1" height="96.8906" id="Library" rx="2.5" ry="2.5" style="stroke:#181818;stroke-width:0.5;" width="176.2539" x="7" y="7"/><ellipse cx="66.4009" cy="23" fill="#ADD1B2" rx="11" ry="11" style="stroke:#181818;stroke-width:1.0;"/><path d="M69.3696,28.6406 Q68.7915,28.9375 68.1509,29.0781 Q67.5103,29.2344 66.8071,29.2344 Q64.3071,29.2344 62.979,27.5938 Q61.6665,25.9375 61.6665,22.8125 Q61.6665,19.6875 62.979,18.0313 Q64.3071,16.375 66.8071,16.375 Q67.5103,16.375 68.1509,16.5313 Q68.8071,16.6875 69.3696,16.9844 L69.3696,19.7031 Q68.7446,19.125 68.1509,18.8594 Q67.5571,18.5781 66.9321,18.5781 Q65.5884,18.5781 64.9009,19.6563 Q64.2134,20.7188 64.2134,22.8125 Q64.2134,24.9063 64.9009,25.9844 Q65.5884,27.0469 66.9321,27.0469 Q67.5571,27.0469 68.1509,26.7813 Q68.7446,26.5 69.3696,25.9219 L69.3696,28.6406 Z " fill="#000000"/><text fill="#000000" font-family="sans-serif" font-size="14" lengthAdjust="spacing" textLength="48.9521" x="86.9009" y="27.8467">Library</text><line style="stroke:#181818;stroke-width:0.5;" x1="8" x2="182.2539" y1="39" y2="39"/><ellipse cx="18" cy="52.6484" fill="none" rx="3" ry="3" style="stroke:#038048;stroke-width:1.0;"/><text fill="#000000" font-family="sans-serif" font-size="14" lengthAdjust="spacing" textLength="90.6514" x="27" y="55.9951">name: String</text><line style="stroke:#181818;stroke-width:0.5;" x1="8" x2="182.2539" y1="63.2969" y2="63.2969"/><ellipse cx="18" cy="76.9453" fill="#84BE84" rx="3" ry="3" style="stroke:#038048;stroke-width:1.0;"/><text fill="#000000" font-family="sans-serif" font-size="14" lengthAdjust="spacing" textLength="150.2539" x="27" y="80.292">addBook(book: Book)</text><ellipse cx="18" cy="93.2422" fill="#84BE84" rx="3" ry="3" style="stroke:#038048;stroke-width:1.0;"/><text fill="#000000" font-family="sans-serif" font-size="14" lengthAdjust="spacing" textLength="73.623" x="27" y="96.5889">listBooks()</text></g><!--class Book--><g id="elem_Book"><rect codeLine="7" fill="#F1F1F1" height="80.5938" id="Book" rx="2.5" ry="2.5" style="stroke:#181818;stroke-width:0.5;" width="123.084" x="33.5" y="181"/><ellipse cx="73.8085" cy="197" fill="#ADD1B2" rx="11" ry="11" style="stroke:#181818;stroke-width:1.0;"/><path d="M76.7773,202.6406 Q76.1992,202.9375 75.5585,203.0781 Q74.9179,203.2344 74.2148,203.2344 Q71.7148,203.2344 70.3867,201.5938 Q69.0742,199.9375 69.0742,196.8125 Q69.0742,193.6875 70.3867,192.0313 Q71.7148,190.375 74.2148,190.375 Q74.9179,190.375 75.5585,190.5313 Q76.2148,190.6875 76.7773,190.9844 L76.7773,193.7031 Q76.1523,193.125 75.5585,192.8594 Q74.9648,192.5781 74.3398,192.5781 Q72.996,192.5781 72.3085,193.6563 Q71.621,194.7188 71.621,196.8125 Q71.621,198.9063 72.3085,199.9844 Q72.996,201.0469 74.3398,201.0469 Q74.9648,201.0469 75.5585,200.7813 Q76.1523,200.5 76.7773,199.9219 L76.7773,202.6406 Z " fill="#000000"/><text fill="#000000" font-family="sans-serif" font-size="14" lengthAdjust="spacing" textLength="34.8428" x="93.4327" y="201.8467">Book</text><line style="stroke:#181818;stroke-width:0.5;" x1="34.5" x2="155.584" y1="213" y2="213"/><ellipse cx="44.5" cy="226.6484" fill="none" rx="3" ry="3" style="stroke:#038048;stroke-width:1.0;"/><text fill="#000000" font-family="sans-serif" font-size="14" lengthAdjust="spacing" textLength="78.3193" x="53.5" y="229.9951">title: String</text><ellipse cx="44.5" cy="242.9453" fill="none" rx="3" ry="3" style="stroke:#038048;stroke-width:1.0;"/><text fill="#000000" font-family="sans-serif" font-size="14" lengthAdjust="spacing" textLength="97.084" x="53.5" y="246.292">author: String</text><line style="stroke:#181818;stroke-width:0.5;" x1="34.5" x2="155.584" y1="253.5938" y2="253.5938"/></g><!--link Library to Book--><g id="link_Library_Book"><path codeLine="12" d="M95,104.38 C95,128.67 95,157.84 95,180.86 " fill="none" id="Library-Book" style="stroke:#181818;stroke-width:1.0;"/><text fill="#000000" font-family="sans-serif" font-size="13" lengthAdjust="spacing" textLength="55.0278" x="96" y="147.0669">contains</text><text fill="#000000" font-family="sans-serif" font-size="13" lengthAdjust="spacing" textLength="8.271" x="86.4636" y="124.0392">1</text><text fill="#000000" font-family="sans-serif" font-size="13" lengthAdjust="spacing" textLength="23.0356" x="70.0913" y="169.9983">0..*</text></g><!--SRC=[Iyv9B2vMyCbCAaeigbIevb800ksynDnKAuNWagBCl7I8I69AYbD-VhP64f2mKW0nDI4IEPd59I1kiOOcLoqNLpBOE900pAoIp98STCDAIpBoY-1YG6qm-vKCbHHqTHMK3FJqj9GWnbWf9EVdbIHcvXK30000]--></g></svg>