<svg xmlns="http://www.w3.org/2000/svg" xmlns:xlink="http://www.w3.org/1999/xlink" contentStyleType="text/css" height="202px" preserveAspectRatio="none" style="width:269px;height:202px;background:#FFFFFF;" version="1.1" viewBox="0 0 269 202" width="269px" zoomAndPan="magnify"><defs/><g><!--class PaymentProcessor--><g id="elem_PaymentProcessor"><rect codeLine="1" fill="#F1F1F1" height="64.2969" id="PaymentProcessor" rx="2.5" ry="2.5" style="stroke:#181818;stroke-width:0.5;" width="255.0313" x="7" y="7"/><ellipse cx="65.314" cy="23" fill="#B4A7E5" rx="11" ry="11" style="stroke:#181818;stroke-width:1.0;"/><path d="M61.2358,18.7656 L61.2358,16.6094 L68.6265,16.6094 L68.6265,18.7656 L66.1577,18.7656 L66.1577,26.8438 L68.6265,26.8438 L68.6265,29 L61.2358,29 L61.2358,26.8438 L63.7046,26.8438 L63.7046,18.7656 L61.2358,18.7656 Z " fill="#000000"/><text fill="#000000" font-family="sans-serif" font-size="14" font-style="italic" lengthAdjust="spacing" textLength="129.9033" x="85.814" y="27.8467">PaymentProcessor</text><line style="stroke:#181818;stroke-width:0.5;" x1="8" x2="261.0313" y1="39" y2="39"/><line style="stroke:#181818;stroke-width:0.5;" x1="8" x2="261.0313" y1="47" y2="47"/><ellipse cx="18" cy="60.6484" fill="#84BE84" rx="3" ry="3" style="stroke:#038048;stroke-width:1.0;"/><text fill="#000000" font-family="sans-serif" font-size="14" lengthAdjust="spacing" textLength="229.0313" x="27" y="63.9951">process_payment(amount: float)</text></g><!--class PayPalProcessor--><g id="elem_PayPalProcessor"><rect codeLine="5" fill="#F1F1F1" height="64.2969" id="PayPalProcessor" rx="2.5" ry="2.5" style="stroke:#181818;stroke-width:0.5;" width="255.0313" x="7" y="131"/><ellipse cx="73.165" cy="147" fill="#ADD1B2" rx="11" ry="11" style="stroke:#181818;stroke-width:1.0;"/><path d="M76.1338,152.6406 Q75.5557,152.9375 74.915,153.0781 Q74.2744,153.2344 73.5713,153.2344 Q71.0713,153.2344 69.7432,151.5938 Q68.4307,149.9375 68.4307,146.8125 Q68.4307,143.6875 69.7432,142.0313 Q71.0713,140.375 73.5713,140.375 Q74.2744,140.375 74.915,140.5313 Q75.5713,140.6875 76.1338,140.9844 L76.1338,143.7031 Q75.5088,143.125 74.915,142.8594 Q74.3213,142.5781 73.6963,142.5781 Q72.3525,142.5781 71.665,143.6563 Q70.9775,144.7188 70.9775,146.8125 Q70.9775,148.9063 71.665,149.9844 Q72.3525,151.0469 73.6963,151.0469 Q74.3213,151.0469 74.915,150.7813 Q75.5088,150.5 76.1338,149.9219 L76.1338,152.6406 Z " fill="#000000"/><text fill="#000000" font-family="sans-serif" font-size="14" lengthAdjust="spacing" textLength="114.2012" x="93.665" y="151.8467">PayPalProcessor</text><line style="stroke:#181818;stroke-width:0.5;" x1="8" x2="261.0313" y1="163" y2="163"/><line style="stroke:#181818;stroke-width:0.5;" x1="8" x2="261.0313" y1="171" y2="171"/><ellipse cx="18" cy="184.6484" fill="#84BE84" rx="3" ry="3" style="stroke:#038048;stroke-width:1.0;"/><text fill="#000000" font-family="sans-serif" font-size="14" lengthAdjust="spacing" textLength="229.0313" x="27" y="187.9951">process_payment(amount: float)</text></g><!--reverse link PaymentProcessor to PayPalProcessor--><g id="link_PaymentProcessor_PayPalProcessor"><path codeLine="9" d="M134.5,89.1 C134.5,107.46 134.5,112.61 134.5,130.96 " fill="none" id="PaymentProcessor-backto-PayPalProcessor" style="stroke:#181818;stroke-width:1.0;stroke-dasharray:7.0,7.0;"/><polygon fill="none" points="134.5,71.1,128.5,89.1,140.5,89.1,134.5,71.1" style="stroke:#181818;stroke-width:1.0;"/></g><!--SRC=[oymhIIrAIqnELGX8hCnDpIi9ACfFJYqkpYzIgEPI00Bj0eX0V054NYCnDxyqhyHA8IqdFx54awkMYoiv9x6u6AG_83673EqO5jlKwEcX6mS0]--></g></svg>