<svg xmlns="http://www.w3.org/2000/svg" xmlns:xlink="http://www.w3.org/1999/xlink" xmlns:lucid="lucid" width="1964" height="868"><g transform="translate(402 -98)" lucid:page-tab-id="lWvbaN5IF.II"><path d="M230 120h700v254H230z" stroke="#6f7681" stroke-width="4" fill="#fff"/><path d="M230 201.45h700m-700 71.2h700" stroke="#6f7681" stroke-width="4" fill="none"/><use xlink:href="#a" transform="matrix(1,0,0,1,238,128) translate(237.98307291666669 22.474826388888886)"/><use xlink:href="#b" transform="matrix(1,0,0,1,238,128) translate(201.97721354166663 56.38324652777778)"/><use xlink:href="#c" transform="matrix(1,0,0,1,242,280.6597222222223) translate(41.95182291666674 34.9921875)"/><use xlink:href="#d" transform="matrix(1,0,0,1,242,280.6597222222223) translate(73.95703125000009 34.9921875)"/><use xlink:href="#e" transform="matrix(1,0,0,1,242,280.6597222222223) translate(346.00130208333337 34.9921875)"/><use xlink:href="#f" transform="matrix(1,0,0,1,242,280.6597222222223) translate(378.0065104166667 34.9921875)"/><use xlink:href="#c" transform="matrix(1,0,0,1,242,280.6597222222223) translate(41.95182291666674 65.20052083333334)"/><use xlink:href="#g" transform="matrix(1,0,0,1,242,280.6597222222223) translate(73.95703125000009 65.20052083333334)"/><use xlink:href="#e" transform="matrix(1,0,0,1,242,280.6597222222223) translate(346.00130208333337 65.20052083333334)"/><use xlink:href="#h" transform="matrix(1,0,0,1,242,280.6597222222223) translate(378.0065104166667 65.20052083333334)"/><path d="M-320 473H40v174h-360z" stroke="#6f7681" stroke-width="4" fill="#fff"/><path d="M-320 554.45H40m-360 46.2H40" stroke="#6f7681" stroke-width="4" fill="none"/><use xlink:href="#i" transform="matrix(1,0,0,1,-312,481) translate(83.98567708333334 22.474826388888886)"/><use xlink:href="#j" transform="matrix(1,0,0,1,-312,481) translate(87.98632812499999 56.38324652777778)"/><use xlink:href="#k" transform="matrix(1,0,0,1,-308,608.6597222222223) translate(15.975260416666686 22.596354166666668)"/><use xlink:href="#l" transform="matrix(1,0,0,1,-308,608.6597222222223) translate(256.01432291666663 22.596354166666668)"/><path d="M13.4 377.98H-127.9l-1.65.12-1.53.37-1.45.6-1.34.82-1.18 1.02-1.02 1.2-.83 1.33-.6 1.45-.37 1.53-.13 1.65v69.7h-3.94V387.9l.16-2.1.5-2.14.84-2.03 1.15-1.87 1.4-1.67 1.68-1.4 1.87-1.16 2.03-.84 2.13-.5 2.12-.18h141.5zm183.1-129H72.08l-1.65.12-1.53.37-1.45.6-1.34.83-1.18 1.02-1.02 1.2-.83 1.33-.6 1.45-.37 1.53-.13 1.65V359h-3.95V258.92l.17-2.1.5-2.14.84-2.03 1.15-1.87 1.4-1.67 1.68-1.4 1.87-1.16 2.03-.84 2.13-.5 2.12-.17H196.5z" stroke="#333" stroke-width=".05" fill="#333"/><path d="M-140 467.07l-7.64-12.9h15.28z" fill="#333"/><path d="M-140 470.95l-11.1-18.76h22.2zm-4.17-14.8l4.17 7.04 4.17-7.06z" stroke="#333" stroke-width=".05" fill="#333"/><path d="M225.17 247l-14.85 14.85L195.17 247l15.15-14.85z" fill="#fff"/><path d="M227.97 247l-17.63 17.63-18-17.63 18-17.63zM198 247l12.3 12.07L222.4 247l-12.07-12.07z" stroke="#333" stroke-width=".05" fill="#333"/><use xlink:href="#m" transform="matrix(1,0,0,1,13.40740740740739,359) translate(0.005000000000002558 21.333333333333336)"/><path d="M160 473h360v144H160z" stroke="#6f7681" stroke-width="4" fill="#fff"/><path d="M160 524.24h360m-360 46.2h360" stroke="#6f7681" stroke-width="4" fill="none"/><use xlink:href="#n" transform="matrix(1,0,0,1,168,481) translate(22.642361111111086 26.279079861111114)"/><path d="M640 473h360v144H640z" stroke="#6f7681" stroke-width="4" fill="#fff"/><path d="M640 524.24h360m-360 46.2h360" stroke="#6f7681" stroke-width="4" fill="none"/><use xlink:href="#o" transform="matrix(1,0,0,1,648,481) translate(22.642361111111086 26.279079861111114)"/><path d="M340 469v-33.5a12 12 0 0 1 12-12h191.2a12 12 0 0 0 12-12v-8.05" stroke="#000" stroke-width="4" fill="none"/><path d="M341.98 471h-3.96v-2.05h3.96z" stroke="#000" stroke-width=".05"/><path d="M555.2 379.93l12.73 21.52h-25.45z" stroke="#000" stroke-width="4" fill="#fff"/><path d="M820 469v-33.5a12 12 0 0 0-12-12H615.47a12 12 0 0 1-12-12v-8.05" stroke="#000" stroke-width="4" fill="none"/><path d="M821.98 471H818v-2.05H822z" stroke="#000" stroke-width=".05"/><path d="M603.47 379.93l12.72 21.52h-25.46z" stroke="#000" stroke-width="4" fill="#fff"/><path d="M140 800h360v144H140z" stroke="#6f7681" stroke-width="4" fill="#fff"/><path d="M140 851.24h360m-360 46.2h360" stroke="#6f7681" stroke-width="4" fill="none"/><use xlink:href="#p" transform="matrix(1,0,0,1,148,807.9999999999999) translate(13.307508680555543 26.279079861111114)"/><path d="M660 800h360v144H660z" stroke="#6f7681" stroke-width="4" fill="#fff"/><path d="M660 851.24h360m-360 46.2h360" stroke="#6f7681" stroke-width="4" fill="none"/><use xlink:href="#q" transform="matrix(1,0,0,1,668,807.9999999999999) translate(13.307508680555543 26.279079861111114)"/><path d="M-380 800h360v144h-360z" stroke="#6f7681" stroke-width="4" fill="#fff"/><path d="M-380 851.24h360m-360 46.2h360" stroke="#6f7681" stroke-width="4" fill="none"/><use xlink:href="#r" transform="matrix(1,0,0,1,-372,807.9999999999999) translate(13.307508680555543 26.279079861111114)"/><path d="M1180 800h360v144h-360z" stroke="#6f7681" stroke-width="4" fill="#fff"/><path d="M1180 851.24h360m-360 46.2h360" stroke="#6f7681" stroke-width="4" fill="none"/><use xlink:href="#s" transform="matrix(1,0,0,1,1188,807.9999999999999) translate(13.307508680555543 26.279079861111114)"/><path d="M1120 473h360v174h-360z" stroke="#6f7681" stroke-width="4" fill="#fff"/><path d="M1120 554.45h360m-360 46.2h360" stroke="#6f7681" stroke-width="4" fill="none"/><use xlink:href="#i" transform="matrix(1,0,0,1,1128,481) translate(83.98567708333334 22.474826388888886)"/><use xlink:href="#t" transform="matrix(1,0,0,1,1128,481) translate(87.98632812499999 56.38324652777778)"/><use xlink:href="#u" transform="matrix(1,0,0,1,1132,608.6597222222223) translate(15.975260416666686 22.596354166666668)"/><use xlink:href="#l" transform="matrix(1,0,0,1,1132,608.6597222222223) translate(256.01432291666663 22.596354166666668)"/><path d="M1288.08 358.02l2.1.17 2.14.5 2.03.84 1.87 1.15 1.67 1.4 1.4 1.68 1.16 1.87.84 2.03.5 2.13.17 2.12v85.85h-3.94v-85.7l-.13-1.64-.37-1.53-.6-1.45-.83-1.34-1.02-1.18-1.2-1.03-1.33-.83-1.45-.6-1.53-.37-1.65-.13H1136.6v-3.95zm-207.9-112.83l2.14.5 2.03.84 1.87 1.15 1.67 1.4 1.4 1.68 1.16 1.87.84 2.03.5 2.13.17 2.12v72.7h-3.94v-72.54l-.13-1.65-.37-1.53-.6-1.45-.83-1.34-1.02-1.18-1.2-1.02-1.33-.83-1.45-.6-1.53-.37-1.65-.13H963.5v-3.94h114.58z" stroke="#333" stroke-width=".05" fill="#333"/><path d="M1300 467.07l-7.64-12.9h15.28z" fill="#333"/><path d="M1300 470.95l-11.1-18.76h22.2zm-4.17-14.8l4.17 7.04 4.17-7.06z" stroke="#333" stroke-width=".05" fill="#333"/><path d="M964.83 247l-15.15 14.85L934.83 247l14.85-14.85z" fill="#fff"/><path d="M967.65 247l-18 17.63L932.04 247l17.63-17.63zm-30.03 0l12.07 12.07L962 247l-12.3-12.07z" stroke="#333" stroke-width=".05" fill="#333"/><use xlink:href="#m" transform="matrix(1,0,0,1,1043.4074074074074,331.60951306218544) translate(0.005000000000002558 21.333333333333336)"/><path d="M-200 796v-7.56m0-15.13v-15.1m0-15.14v-7.56l.15-1.88.44-1.83.7-1.75 1-1.6 1.2-1.44 1.45-1.2 1.6-1 1.74-.7 1.82-.45 1.88-.15h9m18 0h9l1.88-.15 1.83-.44 1.75-.7 1.6-1 1.44-1.22 1.2-1.43 1-1.6.7-1.74.45-1.82.15-1.88v-8.76m0-17.53v-8.75" stroke="#000" stroke-width="4" fill="none"/><path d="M-198.03 798h-3.94v-2.05h3.94z" stroke="#000" stroke-width=".05"/><path d="M-140 652.93l12.73 21.52h-25.46z" stroke="#000" stroke-width="4" fill="#fff"/><path d="M151.63 796v-7.56m0-15.13v-15.1m0-15.14v-7.56l-.14-1.88-.45-1.83-.72-1.75-1-1.6-1.2-1.44-1.44-1.2-1.62-1-1.74-.7-1.83-.45-1.87-.15h-8.38m-16.78 0H97.7m-16.78 0H64.15m-16.78 0H30.6m-16.78 0H-2.95m-16.78 0H-36.5m-16.77 0h-16.78m-16.78 0h-8.38l-1.9-.15-1.82-.44-1.74-.7-1.6-1-1.44-1.22-1.22-1.43-.98-1.6-.72-1.74-.44-1.82-.15-1.88v-8.76m0-17.53v-8.75" stroke="#000" stroke-width="4" fill="none"/><path d="M153.6 798h-3.94v-2.05h3.95z" stroke="#000" stroke-width=".05"/><path d="M-107.2 652.93l12.7 21.52h-25.44z" stroke="#000" stroke-width="4" fill="#fff"/><path d="M-66.96 794.36h-3.95v-9.23h3.94zm0-27.7h-3.95V748.2h3.94zm18.05-56.18h-7.95l-1.65.12-1.53.37-1.45.6-1.34.82-1.2 1.02-1.02 1.2-.82 1.33-.6 1.45-.37 1.53-.13 1.65v9.15h-3.95v-9.3l.16-2.12.5-2.12.85-2.03 1.16-1.87 1.42-1.67 1.67-1.4 1.87-1.16 2.03-.84 2.13-.5 2.1-.18h8.1zm288.7 0h-16.05v-3.96h16.04zm-32.1 0h-16.03v-3.96h16.04zm-32.07 0H159.6v-3.96h16.03zm-32.08 0H127.5l.02-3.96h16.03zm-32.07 0H95.44v-3.96h16.04zm-32.08 0H63.36v-3.96H79.4zm-32.08 0H31.28v-3.96h16.04zm-32.08 0H-.8v-3.96h16.04zm-32.08 0h-16.03v-3.96h16.03zm358.8-17.98h-3.94v-5.44h3.96zm.02-24.3h-3.96v-18.9h3.96zm0-37.76h-3.96V621h3.96z" stroke="#000" stroke-width=".05"/><path d="M341.98 621.05h-3.96V619h3.96z"/><path stroke="#000" stroke-width=".05"/><path d="M-57.05 777.86l-11.88 20.1-11.88-20.1 3.4-2 8.47 14.33 8.48-14.35z" stroke="#000" stroke-width=".05"/><use xlink:href="#m" transform="matrix(1,0,0,1,252.2978373657985,692.5) translate(0.005000000000002558 21.333333333333336)"/><path d="M841.98 796H838v-8.5H842zM860 751.98h-7.94l-1.65.12-1.53.37-1.45.6-1.34.82-1.18 1.02-1.02 1.2-.83 1.33-.6 1.45-.37 1.53-.13 1.65v8.42h-3.95v-8.58l.17-2.1.5-2.14.84-2.03 1.15-1.87 1.4-1.67 1.68-1.4 1.87-1.16 2.03-.84 2.13-.5 2.12-.18h8.1zm32.06 0h-16.03V748h16.03zm32.07 0h-16.03V748h16.03zm32.07 0h-16.04V748h16.04zm32.06 0h-16.03V748h16.03zm32.07 0h-16.04V748h16.05zm32.06 0h-16.02V748h16.03zm32.08 0h-16.03V748h16.03zm32.07 0h-16.04V748h16.05zm32.06 0h-16.02V748h16.03zm32.08 0h-16.04V748h16.04zm32.06 0h-16.03V748h16.04zm32.07 0h-16.02V748h16.03zm38.04-13.9l-.17 2.1-.5 2.14-.85 2.03-1.15 1.87-1.42 1.67-1.67 1.4-1.87 1.16-2.02.84-2.13.5-2.1.18h-8.1V748h7.93l1.65-.12 1.53-.37 1.45-.6 1.35-.82 1.2-1.02 1-1.2.84-1.33.6-1.45.36-1.53.13-1.65-.02-7.6h3.95zm0-23.16h-3.95l-.02-15.4h3.95zm0-30.78h-3.95l-.02-7.7h3.95z" stroke="#000" stroke-width=".05"/><path d="M841.98 798H838v-2.05H842z"/><path stroke="#000" stroke-width=".05"/><path d="M1293.6 674.45h-25.47l12.73-21.52z" fill="#fff"/><path d="M1297.05 676.42h-32.38l16.2-27.37zm-25.45-3.95h18.52l-9.26-15.66z" stroke="#000" stroke-width=".05"/><path d="M1360 796v-7.56m0-15.13v-15.1m0-15.14v-7.56l-.15-1.88-.44-1.83-.7-1.75-1-1.6-1.22-1.44-1.43-1.2-1.6-1-1.74-.7-1.82-.45-1.88-.15h-18.52l-1.88-.15-1.83-.44-1.74-.7-1.6-1-1.44-1.22-1.23-1.43-1-1.6-.7-1.74-.45-1.82-.14-1.88v-8.76m0-17.53v-8.75" stroke="#000" stroke-width="4" fill="none"/><path d="M1361.97 798h-3.94v-2.05h3.94z" stroke="#000" stroke-width=".05"/><path d="M1317.48 652.93l12.72 21.52h-25.45z" stroke="#000" stroke-width="4" fill="#fff"/><path d="M389.08 794.36h-3.95v-9.23h3.95zm0-27.7h-3.95V748.2h3.95zm-.3-42.16h.3v5.23h-3.95v-9.3l.16-2.12.5-2.12.84-2.03 1.15-1.87.97-1.15zm51.9-32h-3.96v-5.44h3.95zm0-24.3h-3.96v-18.9h3.95zm0-37.76h-3.96V621h3.95z" stroke="#000" stroke-width=".05"/><path d="M440.67 621.05h-3.95V619h3.95z"/><path stroke="#000" stroke-width=".05"/><path d="M398.98 777.86l-11.88 20.1-11.88-20.1 3.4-2 8.48 14.33 8.48-14.35z" stroke="#000" stroke-width=".05"/><g><use xlink:href="#m" transform="matrix(1,0,0,1,388.77495248369064,692.5) translate(0.005000000000002558 21.333333333333336)"/></g><path d="M710.3 794.36h-3.95v-9.23h3.95zm0-27.7h-3.95V748.2h3.95zm0-36.93h-3.95v-5.23h3.95zm39.94-37.23h-3.95v-5.44h3.94zm0-24.3h-3.95v-18.9h3.94zm0-37.76h-3.95V621h3.94z" stroke="#000" stroke-width=".05"/><path d="M750.24 621.05h-3.95V619h3.94z"/><path stroke="#000" stroke-width=".05"/><path d="M720.2 777.86l-11.88 20.1-11.88-20.1 3.4-2 8.48 14.33 8.48-14.35z" stroke="#000" stroke-width=".05"/><g><use xlink:href="#m" transform="matrix(1,0,0,1,681.7014434684343,692.5) translate(0.005000000000002558 21.333333333333336)"/></g><path d="M1231.24 794.36h-3.95v-9.23h3.94zm0-27.7h-3.95V748.2h3.94zm-11.8-59.97l2.14.5 2.03.84 1.88 1.15 1.67 1.4 1.43 1.68 1.14 1.87.84 2.03.5 2.13.18 2.12v9.3h-3.95v-9.14l-.14-1.65-.37-1.53-.6-1.45-.83-1.34-1.02-1.18-1.2-1.02-1.34-.83-1.44-.6-1.53-.37-1.64-.13h-8.16v-3.95h8.3zm-224.14 3.77h-16.45v-3.95h16.45zm32.88 0h-16.44v-3.95h16.44zm32.88 0h-16.44v-3.95h16.44zm32.9 0h-16.45v-3.95h16.45zm32.87 0h-16.44v-3.95h16.43zm32.9 0h-16.45v-3.95h16.44zm32.87 0h-16.44v-3.95h16.44zm-230.2 0h-10.74v-3.95h10.75zm-84-17.97h-3.95v-5.44h3.95zm0-24.3h-3.95v-18.9h3.95zm0-37.76h-3.95V621h3.95z" stroke="#000" stroke-width=".05"/><path d="M878.4 621.05h-3.95V619h3.95z"/><path stroke="#000" stroke-width=".05"/><path d="M1241.15 777.86l-11.88 20.1-11.9-20.1 3.4-2 8.5 14.33 8.48-14.35z" stroke="#000" stroke-width=".05"/><g><use xlink:href="#m" transform="matrix(1,0,0,1,858.4784501755936,692.5) translate(0.005000000000002558 21.333333333333336)"/></g><defs><path d="M116-571v-205l995-418v154L253-674l858 367v153" id="v"/><path d="M745-142h380V0H143v-142h422v-798H246v-142h499v940zM545-1292v-192h200v192H545" id="w"/><path d="M706-1102c241 0 344 136 343 381V0H868v-695c1-168-57-273-220-268-190 6-283 138-283 336V0H185c-3-360 6-732-6-1082h170c4 54 7 126 8 185h3c63-121 164-204 346-205" id="x"/><path d="M682 16c-209 0-323-80-324-285v-671H190v-142h170l58-282h120v282h432v142H538v652c2 114 60 155 182 155 106 0 209-16 297-34v137C921-4 806 16 682 16" id="y"/><path d="M617-1102c355 0 481 238 477 599H322c5 222 84 388 301 388 144 0 244-59 284-166l158 45C1002-72 854 20 623 20c-342 0-490-220-490-568 0-346 151-554 484-554zm291 461c-18-192-90-328-289-328-194 0-287 128-295 328h584" id="z"/><path d="M839-1102c70 0 148 7 206 17v167c-112-18-268-36-363 15-129 69-208 203-208 395V0H294c-10-367 32-789-52-1082h171c21 75 41 161 48 250h5c67-152 152-270 373-270" id="A"/><path d="M839-1335c-182-6-269 67-259 253h491v142H580V0H400v-940H138v-142h262c-15-293 132-408 418-402 94 2 200 7 281 21v145c-75-10-177-14-260-17" id="B"/><path d="M1000-272c3 95 12 159 101 161 21 0 41-3 59-7V-6c-44 10-86 16-139 16-141 2-191-84-197-217h-6C748-76 648 20 446 20c-207 0-318-120-318-322 0-266 194-348 454-354l236-4c12-191-40-305-222-305-140 0-220 47-232 172l-188-17c33-204 181-292 423-292 255 0 401 118 401 364v466zm-683-27c0 109 63 184 175 182 166-3 259-96 306-217 24-65 20-120 20-200-232 7-501-28-501 235" id="C"/><path d="M631 20c-350 0-501-215-501-562 0-355 162-560 502-560 250 0 399 118 446 323l-192 14c-23-124-109-196-262-196-242 0-305 171-305 415 1 245 61 427 304 427 151 0 248-77 267-215l190 12C1039-107 883 20 631 20" id="D"/><path d="M116-154v-153l858-367-858-366v-154l995 418v205" id="E"/><g id="a"><use transform="matrix(0.013020833333333334,0,0,0.013020833333333334,0,0)" xlink:href="#v"/><use transform="matrix(0.013020833333333334,0,0,0.013020833333333334,16.002604166666668,0)" xlink:href="#v"/><use transform="matrix(0.013020833333333334,0,0,0.013020833333333334,32.005208333333336,0)" xlink:href="#w"/><use transform="matrix(0.013020833333333334,0,0,0.013020833333333334,48.0078125,0)" xlink:href="#x"/><use transform="matrix(0.013020833333333334,0,0,0.013020833333333334,64.01041666666667,0)" xlink:href="#y"/><use transform="matrix(0.013020833333333334,0,0,0.013020833333333334,80.01302083333334,0)" xlink:href="#z"/><use transform="matrix(0.013020833333333334,0,0,0.013020833333333334,96.01562500000001,0)" xlink:href="#A"/><use transform="matrix(0.013020833333333334,0,0,0.013020833333333334,112.0182291666667,0)" xlink:href="#B"/><use transform="matrix(0.013020833333333334,0,0,0.013020833333333334,128.02083333333334,0)" xlink:href="#C"/><use transform="matrix(0.013020833333333334,0,0,0.013020833333333334,144.0234375,0)" xlink:href="#D"/><use transform="matrix(0.013020833333333334,0,0,0.013020833333333334,160.02604166666666,0)" xlink:href="#z"/><use transform="matrix(0.013020833333333334,0,0,0.013020833333333334,176.02864583333331,0)" xlink:href="#E"/><use transform="matrix(0.013020833333333334,0,0,0.013020833333333334,192.03124999999997,0)" xlink:href="#E"/></g><path d="M1124 0H830l-28-330H346L190 0h-295l705-1349h344zM737-1167c-87 211-191 412-286 615h332c-17-203-41-400-46-615" id="F"/><path d="M356-176c-12 58-30 126-49 176H35c16-68 38-154 54-236l242-1248h281c-38 191-72 384-113 572h2c73-110 181-188 354-191 248-4 322 202 293 457-33 283-138 514-343 624-54 29-114 42-177 42-150-2-235-73-268-196h-4zm483-364c32-163 38-378-131-372-124 4-181 90-228 188-68 142-150 552 86 552 64 0 120-31 167-92s82-154 106-276" id="G"/><path d="M878-785c2-107-76-132-183-131-119 2-205 19-222 111-16 90 70 102 145 121 212 54 501 76 442 368C1012-80 798 20 511 20 263 20 83-39 68-270l255-37c-3 153 168 150 315 135 82-9 147-41 159-118 16-101-81-113-165-134-152-39-331-58-402-177-56-94-15-240 36-311 90-126 249-191 465-191 227 0 393 72 401 292" id="H"/><path d="M934-19C661 27 215 78 277-280c36-207 80-407 119-612H229l37-190h181l143-282h176l-55 282h385l-37 190H674c-37 191-72 381-110 573-40 205 250 136 406 114" id="I"/><path d="M580-854c78-141 186-248 404-248 69 0 147 7 203 17l-46 237c-112-19-266-35-363 15-143 73-233 216-268 395L425 0H145l136-701c21-116 30-253 22-381h271c6 69 9 156 2 228h4" id="J"/><path d="M708-193C620-81 523 15 330 20 129 25 18-101 60-306c48-232 215-341 485-346l224-4c7-45 20-89 20-139 1-86-39-124-117-125-111-1-152 65-180 153l-290-14c73-204 237-321 517-321 254 0 393 135 341 390-30 146-59 290-84 438-11 62 0 114 66 114 21 0 42-2 63-6l-29 152c-59 14-111 26-185 26-136 0-190-69-177-205h-6zm30-308c-139 4-289-11-346 83-19 31-40 91-40 144 0 65 32 98 96 98 184 0 263-154 290-325" id="K"/><path d="M1074-360C991-138 813 15 515 20 220 25 64-146 97-454c33-303 170-518 413-610 69-26 145-38 227-38 250 0 397 117 403 361l-286 14c6-112-45-182-160-182-75 0-135 32-183 93-64 81-123 271-123 431 0 142 55 213 166 213 129 0 207-88 241-201" id="L"/><path d="M575-1121l-75 384h621l-44 228H456L357 0H62l262-1349h939l-44 228H575" id="M"/><path d="M725-1102c305 0 463 153 426 468-36 300-163 518-405 612-72 28-154 42-245 42C201 22 46-148 80-460c32-293 164-506 400-600 72-28 153-42 245-42zM432-707c-57 152-149 543 103 535 249-8 288-238 323-464 24-154-11-278-166-273-150 5-217 88-260 202" id="N"/><path d="M-3 212c85 14 186 10 239-31 61-47 106-118 147-192L143-1082h297c45 283 102 554 124 861 131-302 288-578 437-861h294L626 57c-92 150-176 284-344 346-89 32-223 24-324 9" id="O"/><g id="b"><use transform="matrix(0.015190972222222224,0,0,0.015190972222222224,0,0)" xlink:href="#F"/><use transform="matrix(0.015190972222222224,0,0,0.015190972222222224,18.669704861111114,0)" xlink:href="#G"/><use transform="matrix(0.015190972222222224,0,0,0.015190972222222224,37.33940972222223,0)" xlink:href="#H"/><use transform="matrix(0.015190972222222224,0,0,0.015190972222222224,56.00911458333334,0)" xlink:href="#I"/><use transform="matrix(0.015190972222222224,0,0,0.015190972222222224,74.67881944444446,0)" xlink:href="#J"/><use transform="matrix(0.015190972222222224,0,0,0.015190972222222224,93.34852430555557,0)" xlink:href="#K"/><use transform="matrix(0.015190972222222224,0,0,0.015190972222222224,112.01822916666669,0)" xlink:href="#L"/><use transform="matrix(0.015190972222222224,0,0,0.015190972222222224,130.6879340277778,0)" xlink:href="#I"/><use transform="matrix(0.015190972222222224,0,0,0.015190972222222224,149.3576388888889,0)" xlink:href="#M"/><use transform="matrix(0.015190972222222224,0,0,0.015190972222222224,168.02734375000003,0)" xlink:href="#K"/><use transform="matrix(0.015190972222222224,0,0,0.015190972222222224,186.69704861111114,0)" xlink:href="#L"/><use transform="matrix(0.015190972222222224,0,0,0.015190972222222224,205.36675347222226,0)" xlink:href="#I"/><use transform="matrix(0.015190972222222224,0,0,0.015190972222222224,224.03645833333337,0)" xlink:href="#N"/><use transform="matrix(0.015190972222222224,0,0,0.015190972222222224,242.70616319444449,0)" xlink:href="#J"/><use transform="matrix(0.015190972222222224,0,0,0.015190972222222224,261.3758680555556,0)" xlink:href="#O"/></g><path fill="#282c33" d="M687-608v428H540v-428H116v-146h424v-428h147v428h424v146H687" id="P"/><use transform="matrix(0.013020833333333334,0,0,0.013020833333333334,0,0)" xlink:href="#P" id="c"/><path fill="#282c33" d="M631 20c-350 0-501-215-501-562 0-355 162-560 502-560 250 0 399 118 446 323l-192 14c-23-124-109-196-262-196-242 0-305 171-305 415 1 245 61 427 304 427 151 0 248-77 267-215l190 12C1039-107 883 20 631 20" id="Q"/><path fill="#282c33" d="M839-1102c70 0 148 7 206 17v167c-112-18-268-36-363 15-129 69-208 203-208 395V0H294c-10-367 32-789-52-1082h171c21 75 41 161 48 250h5c67-152 152-270 373-270" id="R"/><path fill="#282c33" d="M617-1102c355 0 481 238 477 599H322c5 222 84 388 301 388 144 0 244-59 284-166l158 45C1002-72 854 20 623 20c-342 0-490-220-490-568 0-346 151-554 484-554zm291 461c-18-192-90-328-289-328-194 0-287 128-295 328h584" id="S"/><path fill="#282c33" d="M1000-272c3 95 12 159 101 161 21 0 41-3 59-7V-6c-44 10-86 16-139 16-141 2-191-84-197-217h-6C748-76 648 20 446 20c-207 0-318-120-318-322 0-266 194-348 454-354l236-4c12-191-40-305-222-305-140 0-220 47-232 172l-188-17c33-204 181-292 423-292 255 0 401 118 401 364v466zm-683-27c0 109 63 184 175 182 166-3 259-96 306-217 24-65 20-120 20-200-232 7-501-28-501 235" id="T"/><path fill="#282c33" d="M682 16c-209 0-323-80-324-285v-671H190v-142h170l58-282h120v282h432v142H538v652c2 114 60 155 182 155 106 0 209-16 297-34v137C921-4 806 16 682 16" id="U"/><path fill="#282c33" d="M622-1349c296 4 497 117 497 404 0 282-193 424-485 431H353V0H162v-1349h460zm-15 684c195-3 320-88 320-277 0-184-129-255-328-254H353v531h254" id="V"/><path fill="#282c33" d="M615-1102c343 0 484 203 482 560-1 347-147 562-488 562-336 0-475-219-479-562-4-349 156-560 485-560zm-8 989c240 0 301-180 301-429 0-245-55-427-290-427-236 0-299 181-299 427 0 243 61 429 288 429" id="W"/><path fill="#282c33" d="M865-914c-3-187-2-380-2-570h180v1261c0 76 1 155 6 223H877c-8-49-9-116-10-174h-5C801-44 708 26 530 26c-135 0-234-46-297-139s-95-232-95-419c0-377 131-566 392-566 176 0 271 63 335 184zm-286-51c-222 0-255 197-255 427 0 229 31 425 253 425 237 0 286-195 286-441 0-238-52-411-284-411" id="X"/><path fill="#282c33" d="M528 20c-247 0-343-132-343-381v-721h180v686c-4 177 45 284 224 277 194-8 279-136 279-336v-627h181c3 360-6 732 6 1082H885c-4-54-7-126-8-185h-3C809-64 714 20 528 20" id="Y"/><path fill="#282c33" d="M1034 0L896-382H333L196 0H0l510-1349h217L1228 0h-194zM847-531c-77-225-157-447-231-674-69 231-154 451-232 674h463" id="Z"/><path fill="#282c33" d="M891-1484c-201 251-362 514-362 954 0 441 161 704 362 955H701C500 176 342-90 342-532c0-440 159-704 359-952h190" id="aa"/><path fill="#282c33" d="M528-1484c201 248 357 511 357 952 0 442-156 709-357 957H336C537 174 700-89 700-530c0-440-163-703-364-954h192" id="ab"/><g id="d"><use transform="matrix(0.013020833333333334,0,0,0.013020833333333334,0,0)" xlink:href="#Q"/><use transform="matrix(0.013020833333333334,0,0,0.013020833333333334,16.002604166666668,0)" xlink:href="#R"/><use transform="matrix(0.013020833333333334,0,0,0.013020833333333334,32.005208333333336,0)" xlink:href="#S"/><use transform="matrix(0.013020833333333334,0,0,0.013020833333333334,48.0078125,0)" xlink:href="#T"/><use transform="matrix(0.013020833333333334,0,0,0.013020833333333334,64.01041666666667,0)" xlink:href="#U"/><use transform="matrix(0.013020833333333334,0,0,0.013020833333333334,80.01302083333334,0)" xlink:href="#S"/><use transform="matrix(0.013020833333333334,0,0,0.013020833333333334,96.01562500000001,0)" xlink:href="#V"/><use transform="matrix(0.013020833333333334,0,0,0.013020833333333334,112.0182291666667,0)" xlink:href="#R"/><use transform="matrix(0.013020833333333334,0,0,0.013020833333333334,128.02083333333334,0)" xlink:href="#W"/><use transform="matrix(0.013020833333333334,0,0,0.013020833333333334,144.0234375,0)" xlink:href="#X"/><use transform="matrix(0.013020833333333334,0,0,0.013020833333333334,160.02604166666666,0)" xlink:href="#Y"/><use transform="matrix(0.013020833333333334,0,0,0.013020833333333334,176.02864583333331,0)" xlink:href="#Q"/><use transform="matrix(0.013020833333333334,0,0,0.013020833333333334,192.03124999999997,0)" xlink:href="#U"/><use transform="matrix(0.013020833333333334,0,0,0.013020833333333334,208.03385416666663,0)" xlink:href="#Z"/><use transform="matrix(0.013020833333333334,0,0,0.013020833333333334,224.0364583333333,0)" xlink:href="#aa"/><use transform="matrix(0.013020833333333334,0,0,0.013020833333333334,240.03906249999997,0)" xlink:href="#ab"/></g><path fill="#282c33" d="M496 0v-299h235V0H496zm0-783v-299h235v299H496" id="ac"/><use transform="matrix(0.013020833333333334,0,0,0.013020833333333334,0,0)" xlink:href="#ac" id="e"/><path fill="#282c33" d="M365-904c58-129 161-200 334-200 130 0 228 46 293 138s98 233 98 420c0 189-34 331-102 425S824 20 698 20c-170 0-275-64-336-184 0 55-3 116-9 164H179c5-68 6-147 6-223v-1261h180c-2 193 4 394-4 580h4zm283 791c221 0 256-197 256-427 0-229-34-425-254-425-236 0-285 195-285 441 0 237 53 411 283 411" id="ad"/><path fill="#282c33" d="M873-819c-18-114-119-146-250-146-163 0-245 50-245 151 0 151 170 148 294 185 182 54 388 94 388 320 0 240-189 325-439 329-245 4-410-69-454-268l159-31c24 133 136 168 295 165 144-2 270-31 270-171 0-164-195-160-331-202-167-52-350-87-350-299 0-218 173-315 413-313 220 2 373 77 412 260" id="ae"/><g id="f"><use transform="matrix(0.013020833333333334,0,0,0.013020833333333334,0,0)" xlink:href="#Z"/><use transform="matrix(0.013020833333333334,0,0,0.013020833333333334,16.002604166666668,0)" xlink:href="#ad"/><use transform="matrix(0.013020833333333334,0,0,0.013020833333333334,32.005208333333336,0)" xlink:href="#ae"/><use transform="matrix(0.013020833333333334,0,0,0.013020833333333334,48.0078125,0)" xlink:href="#U"/><use transform="matrix(0.013020833333333334,0,0,0.013020833333333334,64.01041666666667,0)" xlink:href="#R"/><use transform="matrix(0.013020833333333334,0,0,0.013020833333333334,80.01302083333334,0)" xlink:href="#T"/><use transform="matrix(0.013020833333333334,0,0,0.013020833333333334,96.01562500000001,0)" xlink:href="#Q"/><use transform="matrix(0.013020833333333334,0,0,0.013020833333333334,112.0182291666667,0)" xlink:href="#U"/><use transform="matrix(0.013020833333333334,0,0,0.013020833333333334,128.02083333333334,0)" xlink:href="#V"/><use transform="matrix(0.013020833333333334,0,0,0.013020833333333334,144.0234375,0)" xlink:href="#R"/><use transform="matrix(0.013020833333333334,0,0,0.013020833333333334,160.02604166666666,0)" xlink:href="#W"/><use transform="matrix(0.013020833333333334,0,0,0.013020833333333334,176.02864583333331,0)" xlink:href="#X"/><use transform="matrix(0.013020833333333334,0,0,0.013020833333333334,192.03124999999997,0)" xlink:href="#Y"/><use transform="matrix(0.013020833333333334,0,0,0.013020833333333334,208.03385416666663,0)" xlink:href="#Q"/><use transform="matrix(0.013020833333333334,0,0,0.013020833333333334,224.0364583333333,0)" xlink:href="#U"/><use transform="matrix(0.013020833333333334,0,0,0.013020833333333334,240.03906249999997,0)" xlink:href="#Z"/></g><path fill="#282c33" d="M802-711c201 25 350 118 350 331C1152-95 921 0 634 0H162v-1349c401 9 908-74 908 327 0 184-111 275-268 311zm-224-69c174-2 300-51 300-218 0-163-124-198-302-198H353v416h225zM353-153c281-2 612 44 606-244-5-271-329-233-606-234v478" id="af"/><g id="g"><use transform="matrix(0.013020833333333334,0,0,0.013020833333333334,0,0)" xlink:href="#Q"/><use transform="matrix(0.013020833333333334,0,0,0.013020833333333334,16.002604166666668,0)" xlink:href="#R"/><use transform="matrix(0.013020833333333334,0,0,0.013020833333333334,32.005208333333336,0)" xlink:href="#S"/><use transform="matrix(0.013020833333333334,0,0,0.013020833333333334,48.0078125,0)" xlink:href="#T"/><use transform="matrix(0.013020833333333334,0,0,0.013020833333333334,64.01041666666667,0)" xlink:href="#U"/><use transform="matrix(0.013020833333333334,0,0,0.013020833333333334,80.01302083333334,0)" xlink:href="#S"/><use transform="matrix(0.013020833333333334,0,0,0.013020833333333334,96.01562500000001,0)" xlink:href="#V"/><use transform="matrix(0.013020833333333334,0,0,0.013020833333333334,112.0182291666667,0)" xlink:href="#R"/><use transform="matrix(0.013020833333333334,0,0,0.013020833333333334,128.02083333333334,0)" xlink:href="#W"/><use transform="matrix(0.013020833333333334,0,0,0.013020833333333334,144.0234375,0)" xlink:href="#X"/><use transform="matrix(0.013020833333333334,0,0,0.013020833333333334,160.02604166666666,0)" xlink:href="#Y"/><use transform="matrix(0.013020833333333334,0,0,0.013020833333333334,176.02864583333331,0)" xlink:href="#Q"/><use transform="matrix(0.013020833333333334,0,0,0.013020833333333334,192.03124999999997,0)" xlink:href="#U"/><use transform="matrix(0.013020833333333334,0,0,0.013020833333333334,208.03385416666663,0)" xlink:href="#af"/><use transform="matrix(0.013020833333333334,0,0,0.013020833333333334,224.0364583333333,0)" xlink:href="#aa"/><use transform="matrix(0.013020833333333334,0,0,0.013020833333333334,240.03906249999997,0)" xlink:href="#ab"/></g><g id="h"><use transform="matrix(0.013020833333333334,0,0,0.013020833333333334,0,0)" xlink:href="#Z"/><use transform="matrix(0.013020833333333334,0,0,0.013020833333333334,16.002604166666668,0)" xlink:href="#ad"/><use transform="matrix(0.013020833333333334,0,0,0.013020833333333334,32.005208333333336,0)" xlink:href="#ae"/><use transform="matrix(0.013020833333333334,0,0,0.013020833333333334,48.0078125,0)" xlink:href="#U"/><use transform="matrix(0.013020833333333334,0,0,0.013020833333333334,64.01041666666667,0)" xlink:href="#R"/><use transform="matrix(0.013020833333333334,0,0,0.013020833333333334,80.01302083333334,0)" xlink:href="#T"/><use transform="matrix(0.013020833333333334,0,0,0.013020833333333334,96.01562500000001,0)" xlink:href="#Q"/><use transform="matrix(0.013020833333333334,0,0,0.013020833333333334,112.0182291666667,0)" xlink:href="#U"/><use transform="matrix(0.013020833333333334,0,0,0.013020833333333334,128.02083333333334,0)" xlink:href="#V"/><use transform="matrix(0.013020833333333334,0,0,0.013020833333333334,144.0234375,0)" xlink:href="#R"/><use transform="matrix(0.013020833333333334,0,0,0.013020833333333334,160.02604166666666,0)" xlink:href="#W"/><use transform="matrix(0.013020833333333334,0,0,0.013020833333333334,176.02864583333331,0)" xlink:href="#X"/><use transform="matrix(0.013020833333333334,0,0,0.013020833333333334,192.03124999999997,0)" xlink:href="#Y"/><use transform="matrix(0.013020833333333334,0,0,0.013020833333333334,208.03385416666663,0)" xlink:href="#Q"/><use transform="matrix(0.013020833333333334,0,0,0.013020833333333334,224.0364583333333,0)" xlink:href="#U"/><use transform="matrix(0.013020833333333334,0,0,0.013020833333333334,240.03906249999997,0)" xlink:href="#af"/></g><g id="i"><use transform="matrix(0.013020833333333334,0,0,0.013020833333333334,0,0)" xlink:href="#v"/><use transform="matrix(0.013020833333333334,0,0,0.013020833333333334,16.002604166666668,0)" xlink:href="#w"/><use transform="matrix(0.013020833333333334,0,0,0.013020833333333334,32.005208333333336,0)" xlink:href="#x"/><use transform="matrix(0.013020833333333334,0,0,0.013020833333333334,48.0078125,0)" xlink:href="#y"/><use transform="matrix(0.013020833333333334,0,0,0.013020833333333334,64.01041666666667,0)" xlink:href="#z"/><use transform="matrix(0.013020833333333334,0,0,0.013020833333333334,80.01302083333334,0)" xlink:href="#A"/><use transform="matrix(0.013020833333333334,0,0,0.013020833333333334,96.01562500000001,0)" xlink:href="#B"/><use transform="matrix(0.013020833333333334,0,0,0.013020833333333334,112.0182291666667,0)" xlink:href="#C"/><use transform="matrix(0.013020833333333334,0,0,0.013020833333333334,128.02083333333334,0)" xlink:href="#D"/><use transform="matrix(0.013020833333333334,0,0,0.013020833333333334,144.0234375,0)" xlink:href="#z"/><use transform="matrix(0.013020833333333334,0,0,0.013020833333333334,160.02604166666666,0)" xlink:href="#E"/></g><path d="M157-1349h916v228H757v893h316V0H157v-228h316v-893H157v-228" id="ag"/><path d="M616-1349c316 3 526 118 526 426 0 301-201 442-514 447H431V0H136v-1349h480zm-25 646c164 1 254-62 254-215 0-157-99-200-262-202H431v417h160" id="ah"/><path d="M875-1102c70 0 148 7 206 17v237c-110-17-267-37-359 15-123 69-192 207-192 395V0H250c-10-367 32-789-52-1082h271c19 69 36 149 46 228h4c52-151 151-250 356-248" id="ai"/><path d="M616-1102c361 0 521 202 521 560 0 354-171 562-527 562C259 20 92-192 92-542c0-351 169-560 524-560zm-9 930c200-2 236-165 236-370 0-199-27-367-223-367-195 0-233 146-233 367 0 129 18 223 55 282s92 88 165 88" id="aj"/><path d="M802-909c-3-189-2-383-2-575h281v1248c-1 83 4 168 8 236H817c-9-50-14-117-15-176h-4C735-49 651 20 482 20 191 20 97-238 97-539c0-243 66-432 221-519 50-28 108-42 175-42 162 2 253 78 309 191zm-70 658c91-113 93-462 2-584-46-61-145-100-224-53-96 56-119 190-120 349 0 123 17 214 52 275 46 82 130 115 222 74 25-12 46-33 68-61" id="ak"/><path d="M471 20c-247 0-336-169-336-415v-687h281v607c4 148 31 285 172 285 152 0 207-150 207-312v-580h281c4 359-9 736 8 1082H816c-7-63-11-146-12-215h-5C736-76 644 20 471 20" id="al"/><path d="M1109-360C1066-122 902 20 624 20c-347 0-514-209-514-555 0-353 168-567 518-567 270 0 425 136 473 361l-283 14c-16-106-75-183-196-182-75 0-130 31-165 93s-52 152-52 270c0 249 74 374 221 374 120 0 188-82 201-201" id="am"/><path d="M711 13c-250 0-386-99-385-349l2-556H161v-190h181l88-282h176v282h385v190H606v530c-10 130 45 186 174 184 91-2 176-11 255-27v186C933-1 833 13 711 13" id="an"/><path d="M1229 0H935l-92-330H387L295 0H0l443-1349h344zM615-1167c-46 213-110 412-166 615h332c-56-204-119-401-166-615" id="ao"/><g id="j"><use transform="matrix(0.015190972222222224,0,0,0.015190972222222224,0,0)" xlink:href="#ag"/><use transform="matrix(0.015190972222222224,0,0,0.015190972222222224,18.669704861111114,0)" xlink:href="#ah"/><use transform="matrix(0.015190972222222224,0,0,0.015190972222222224,37.33940972222223,0)" xlink:href="#ai"/><use transform="matrix(0.015190972222222224,0,0,0.015190972222222224,56.00911458333334,0)" xlink:href="#aj"/><use transform="matrix(0.015190972222222224,0,0,0.015190972222222224,74.67881944444446,0)" xlink:href="#ak"/><use transform="matrix(0.015190972222222224,0,0,0.015190972222222224,93.34852430555557,0)" xlink:href="#al"/><use transform="matrix(0.015190972222222224,0,0,0.015190972222222224,112.01822916666669,0)" xlink:href="#am"/><use transform="matrix(0.015190972222222224,0,0,0.015190972222222224,130.6879340277778,0)" xlink:href="#an"/><use transform="matrix(0.015190972222222224,0,0,0.015190972222222224,149.3576388888889,0)" xlink:href="#ao"/></g><path d="M687-608v428H540v-428H116v-146h424v-428h147v428h424v146H687" id="ap"/><path d="M615-1102c343 0 484 203 482 560-1 347-147 562-488 562-336 0-475-219-479-562-4-349 156-560 485-560zm-8 989c240 0 301-180 301-429 0-245-55-427-290-427-236 0-299 181-299 427 0 243 61 429 288 429" id="aq"/><path d="M698-1104c312 3 392 244 392 558 0 315-82 566-392 566-169 0-277-65-331-184h-5c8 188 2 394 4 589H185V-858c0-76-1-156-6-224h175c6 52 9 120 10 178h4c58-122 150-202 330-200zm-49 991c225 0 255-203 255-433 0-225-32-419-253-419-236 0-285 192-285 441 0 237 53 411 283 411" id="ar"/><path d="M1034 0L896-382H333L196 0H0l510-1349h217L1228 0h-194zM847-531c-77-225-157-447-231-674-69 231-154 451-232 674h463" id="as"/><path d="M891-1484c-201 251-362 514-362 954 0 441 161 704 362 955H701C500 176 342-90 342-532c0-440 159-704 359-952h190" id="at"/><path d="M528-1484c201 248 357 511 357 952 0 442-156 709-357 957H336C537 174 700-89 700-530c0-440-163-703-364-954h192" id="au"/><path d="M496 0v-299h235V0H496zm0-783v-299h235v299H496" id="av"/><g id="k"><use transform="matrix(0.013020833333333334,0,0,0.013020833333333334,0,0)" xlink:href="#ap"/><use transform="matrix(0.013020833333333334,0,0,0.013020833333333334,16.002604166666668,0)" xlink:href="#aq"/><use transform="matrix(0.013020833333333334,0,0,0.013020833333333334,32.005208333333336,0)" xlink:href="#ar"/><use transform="matrix(0.013020833333333334,0,0,0.013020833333333334,48.0078125,0)" xlink:href="#z"/><use transform="matrix(0.013020833333333334,0,0,0.013020833333333334,64.01041666666667,0)" xlink:href="#A"/><use transform="matrix(0.013020833333333334,0,0,0.013020833333333334,80.01302083333334,0)" xlink:href="#C"/><use transform="matrix(0.013020833333333334,0,0,0.013020833333333334,96.01562500000001,0)" xlink:href="#y"/><use transform="matrix(0.013020833333333334,0,0,0.013020833333333334,112.0182291666667,0)" xlink:href="#w"/><use transform="matrix(0.013020833333333334,0,0,0.013020833333333334,128.02083333333334,0)" xlink:href="#aq"/><use transform="matrix(0.013020833333333334,0,0,0.013020833333333334,144.0234375,0)" xlink:href="#x"/><use transform="matrix(0.013020833333333334,0,0,0.013020833333333334,160.02604166666666,0)" xlink:href="#as"/><use transform="matrix(0.013020833333333334,0,0,0.013020833333333334,176.02864583333331,0)" xlink:href="#at"/><use transform="matrix(0.013020833333333334,0,0,0.013020833333333334,192.03124999999997,0)" xlink:href="#au"/><use transform="matrix(0.013020833333333334,0,0,0.013020833333333334,208.03385416666663,0)" xlink:href="#av"/></g><path d="M715 0H502L69-1082h202c94 253 197 500 285 758 19 57 36 126 52 183 96-335 234-626 350-941h201" id="aw"/><path d="M865-914c-3-187-2-380-2-570h180v1261c0 76 1 155 6 223H877c-8-49-9-116-10-174h-5C801-44 708 26 530 26c-135 0-234-46-297-139s-95-232-95-419c0-377 131-566 392-566 176 0 271 63 335 184zm-286-51c-222 0-255 197-255 427 0 229 31 425 253 425 237 0 286-195 286-441 0-238-52-411-284-411" id="ax"/><g id="l"><use transform="matrix(0.013020833333333334,0,0,0.013020833333333334,0,0)" xlink:href="#aw"/><use transform="matrix(0.013020833333333334,0,0,0.013020833333333334,16.002604166666668,0)" xlink:href="#aq"/><use transform="matrix(0.013020833333333334,0,0,0.013020833333333334,32.005208333333336,0)" xlink:href="#w"/><use transform="matrix(0.013020833333333334,0,0,0.013020833333333334,48.0078125,0)" xlink:href="#ax"/></g><path fill="#282c33" d="M212-179c-10-28-35-45-73-45-59 0-87 40-87 99 0 60 29 101 89 101 43 0 62-24 78-52l27 14C228-24 195 4 139 4 59 4 22-46 18-125c-6-104 99-153 187-111 19 9 31 26 39 46" id="ay"/><path fill="#282c33" d="M114-163C36-179 61-72 57 0H25l-1-190h30c1 12-1 29 2 39 6-27 23-49 58-41v29" id="az"/><path fill="#282c33" d="M100-194c63 0 86 42 84 106H49c0 40 14 67 53 68 26 1 43-12 49-29l28 8c-11 28-37 45-77 45C44 4 14-33 15-96c1-61 26-98 85-98zm52 81c6-60-76-77-97-28-3 7-6 17-6 28h103" id="aA"/><path fill="#282c33" d="M141-36C126-15 110 5 73 4 37 3 15-17 15-53c-1-64 63-63 125-63 3-35-9-54-41-54-24 1-41 7-42 31l-33-3c5-37 33-52 76-52 45 0 72 20 72 64v82c-1 20 7 32 28 27v20c-31 9-61-2-59-35zM48-53c0 20 12 33 32 33 41-3 63-29 60-74-43 2-92-5-92 41" id="aB"/><path fill="#282c33" d="M59-47c-2 24 18 29 38 22v24C64 9 27 4 27-40v-127H5v-23h24l9-43h21v43h35v23H59v120" id="aC"/><path fill="#282c33" d="M135-143c-3-34-86-38-87 0 15 53 115 12 119 90S17 21 10-45l28-5c4 36 97 45 98 0-10-56-113-15-118-90-4-57 82-63 122-42 12 7 21 19 24 35" id="aD"/><g id="m"><use transform="matrix(0.07407407407407408,0,0,0.07407407407407408,0,0)" xlink:href="#ay"/><use transform="matrix(0.07407407407407408,0,0,0.07407407407407408,19.185185185185187,0)" xlink:href="#az"/><use transform="matrix(0.07407407407407408,0,0,0.07407407407407408,28.000000000000004,0)" xlink:href="#aA"/><use transform="matrix(0.07407407407407408,0,0,0.07407407407407408,42.814814814814824,0)" xlink:href="#aB"/><use transform="matrix(0.07407407407407408,0,0,0.07407407407407408,57.62962962962964,0)" xlink:href="#aC"/><use transform="matrix(0.07407407407407408,0,0,0.07407407407407408,65.03703703703705,0)" xlink:href="#aA"/><use transform="matrix(0.07407407407407408,0,0,0.07407407407407408,79.85185185185188,0)" xlink:href="#aD"/></g><path d="M872-915c-35-112-84-223-220-223-91 0-156 41-204 116-89 137-87 550 2 688 51 79 116 122 209 122 150 0 197-126 240-244l273 52C1094-168 961 20 656 20 239 20 80-262 80-681c0-418 154-689 568-689 289 0 425 167 496 389" id="aE"/><path d="M768-1103c247 0 336 167 336 416V0H824v-619c-3-164-24-273-171-273-164 0-229 142-229 312V0H143c-4-359 9-736-8-1082h268c7 63 12 146 13 215h4c67-145 160-236 348-236" id="aF"/><path d="M1113-274C1038-96 884 20 626 20c-352 0-526-209-526-566 0-358 185-556 530-556 358 0 496 251 499 615H395c5 180 68 319 245 319 102 0 186-45 208-129zM857-663c-6-177-128-307-315-247-94 30-141 121-145 247h460" id="aG"/><path d="M462-1121v384h621v228H462V0H167v-1349h939v228H462" id="aH"/><path d="M775-193C708-75 621 20 439 20 226 20 106-93 106-306c0-251 170-341 417-346l223-4c4-143-12-264-148-264-103 0-141 58-150 153l-293-14c37-219 194-321 455-321 263 0 418 130 417 390v392c1 84 5 161 89 160 21 0 42-2 62-6v152c-57 15-108 27-180 26-145 0-202-73-217-205h-6zm-256 17c168 0 234-139 227-325-166 4-347-25-347 173 0 94 33 152 120 152" id="aI"/><path d="M143 212c82 12 185 12 233-31 50-45 83-117 110-192L38-1082h297c100 284 211 557 291 861 72-305 176-578 270-861h294L742 57c-80 192-156 368-417 368-60 0-131-4-182-13V212" id="aJ"/><g id="n"><use transform="matrix(0.015190972222222224,0,0,0.015190972222222224,0,0)" xlink:href="#aE"/><use transform="matrix(0.015190972222222224,0,0,0.015190972222222224,18.669704861111114,0)" xlink:href="#aj"/><use transform="matrix(0.015190972222222224,0,0,0.015190972222222224,37.33940972222223,0)" xlink:href="#aF"/><use transform="matrix(0.015190972222222224,0,0,0.015190972222222224,56.00911458333334,0)" xlink:href="#am"/><use transform="matrix(0.015190972222222224,0,0,0.015190972222222224,74.67881944444446,0)" xlink:href="#ai"/><use transform="matrix(0.015190972222222224,0,0,0.015190972222222224,93.34852430555557,0)" xlink:href="#aG"/><use transform="matrix(0.015190972222222224,0,0,0.015190972222222224,112.01822916666669,0)" xlink:href="#an"/><use transform="matrix(0.015190972222222224,0,0,0.015190972222222224,130.6879340277778,0)" xlink:href="#aG"/><use transform="matrix(0.015190972222222224,0,0,0.015190972222222224,149.3576388888889,0)" xlink:href="#aH"/><use transform="matrix(0.015190972222222224,0,0,0.015190972222222224,168.02734375000003,0)" xlink:href="#aI"/><use transform="matrix(0.015190972222222224,0,0,0.015190972222222224,186.69704861111114,0)" xlink:href="#am"/><use transform="matrix(0.015190972222222224,0,0,0.015190972222222224,205.36675347222226,0)" xlink:href="#an"/><use transform="matrix(0.015190972222222224,0,0,0.015190972222222224,224.03645833333337,0)" xlink:href="#aj"/><use transform="matrix(0.015190972222222224,0,0,0.015190972222222224,242.70616319444449,0)" xlink:href="#ai"/><use transform="matrix(0.015190972222222224,0,0,0.015190972222222224,261.3758680555556,0)" xlink:href="#aJ"/><use transform="matrix(0.015190972222222224,0,0,0.015190972222222224,280.04557291666674,0)" xlink:href="#ao"/></g><path d="M836-709c204 20 350 118 350 324C1186-112 992 0 719 0H137v-1349h525c258 3 443 87 443 339 0 176-107 269-269 301zM643-811c107 0 165-53 165-159 0-113-61-160-167-160H432v319h211zm46 592c128-1 201-59 200-191-1-128-80-183-207-183H432v374h257" id="aK"/><g id="o"><use transform="matrix(0.015190972222222224,0,0,0.015190972222222224,0,0)" xlink:href="#aE"/><use transform="matrix(0.015190972222222224,0,0,0.015190972222222224,18.669704861111114,0)" xlink:href="#aj"/><use transform="matrix(0.015190972222222224,0,0,0.015190972222222224,37.33940972222223,0)" xlink:href="#aF"/><use transform="matrix(0.015190972222222224,0,0,0.015190972222222224,56.00911458333334,0)" xlink:href="#am"/><use transform="matrix(0.015190972222222224,0,0,0.015190972222222224,74.67881944444446,0)" xlink:href="#ai"/><use transform="matrix(0.015190972222222224,0,0,0.015190972222222224,93.34852430555557,0)" xlink:href="#aG"/><use transform="matrix(0.015190972222222224,0,0,0.015190972222222224,112.01822916666669,0)" xlink:href="#an"/><use transform="matrix(0.015190972222222224,0,0,0.015190972222222224,130.6879340277778,0)" xlink:href="#aG"/><use transform="matrix(0.015190972222222224,0,0,0.015190972222222224,149.3576388888889,0)" xlink:href="#aH"/><use transform="matrix(0.015190972222222224,0,0,0.015190972222222224,168.02734375000003,0)" xlink:href="#aI"/><use transform="matrix(0.015190972222222224,0,0,0.015190972222222224,186.69704861111114,0)" xlink:href="#am"/><use transform="matrix(0.015190972222222224,0,0,0.015190972222222224,205.36675347222226,0)" xlink:href="#an"/><use transform="matrix(0.015190972222222224,0,0,0.015190972222222224,224.03645833333337,0)" xlink:href="#aj"/><use transform="matrix(0.015190972222222224,0,0,0.015190972222222224,242.70616319444449,0)" xlink:href="#ai"/><use transform="matrix(0.015190972222222224,0,0,0.015190972222222224,261.3758680555556,0)" xlink:href="#aJ"/><use transform="matrix(0.015190972222222224,0,0,0.015190972222222224,280.04557291666674,0)" xlink:href="#aK"/></g><path d="M135-968c34-256 187-402 480-402 217 0 371 75 441 220 45 93 40 219-8 308-114 212-348 323-508 488-38 39-66 80-85 123h654V0H123v-195c112-245 321-399 515-560 57-48 107-96 142-157 14-26 22-53 22-80-1-104-73-156-185-154-131 2-181 74-199 194" id="aL"/><g id="p"><use transform="matrix(0.015190972222222224,0,0,0.015190972222222224,0,0)" xlink:href="#aE"/><use transform="matrix(0.015190972222222224,0,0,0.015190972222222224,18.669704861111114,0)" xlink:href="#aj"/><use transform="matrix(0.015190972222222224,0,0,0.015190972222222224,37.33940972222223,0)" xlink:href="#aF"/><use transform="matrix(0.015190972222222224,0,0,0.015190972222222224,56.00911458333334,0)" xlink:href="#am"/><use transform="matrix(0.015190972222222224,0,0,0.015190972222222224,74.67881944444446,0)" xlink:href="#ai"/><use transform="matrix(0.015190972222222224,0,0,0.015190972222222224,93.34852430555557,0)" xlink:href="#aG"/><use transform="matrix(0.015190972222222224,0,0,0.015190972222222224,112.01822916666669,0)" xlink:href="#an"/><use transform="matrix(0.015190972222222224,0,0,0.015190972222222224,130.6879340277778,0)" xlink:href="#aG"/><use transform="matrix(0.015190972222222224,0,0,0.015190972222222224,149.3576388888889,0)" xlink:href="#ah"/><use transform="matrix(0.015190972222222224,0,0,0.015190972222222224,168.02734375000003,0)" xlink:href="#ai"/><use transform="matrix(0.015190972222222224,0,0,0.015190972222222224,186.69704861111114,0)" xlink:href="#aj"/><use transform="matrix(0.015190972222222224,0,0,0.015190972222222224,205.36675347222226,0)" xlink:href="#ak"/><use transform="matrix(0.015190972222222224,0,0,0.015190972222222224,224.03645833333337,0)" xlink:href="#al"/><use transform="matrix(0.015190972222222224,0,0,0.015190972222222224,242.70616319444449,0)" xlink:href="#am"/><use transform="matrix(0.015190972222222224,0,0,0.015190972222222224,261.3758680555556,0)" xlink:href="#an"/><use transform="matrix(0.015190972222222224,0,0,0.015190972222222224,280.04557291666674,0)" xlink:href="#ao"/><use transform="matrix(0.015190972222222224,0,0,0.015190972222222224,298.7152777777778,0)" xlink:href="#aL"/></g><path d="M138-1120c207-4 339-93 415-229h266v1140h323V0H149v-209h389v-891c-70 121-216 187-400 194v-214" id="aM"/><g id="q"><use transform="matrix(0.015190972222222224,0,0,0.015190972222222224,0,0)" xlink:href="#aE"/><use transform="matrix(0.015190972222222224,0,0,0.015190972222222224,18.669704861111114,0)" xlink:href="#aj"/><use transform="matrix(0.015190972222222224,0,0,0.015190972222222224,37.33940972222223,0)" xlink:href="#aF"/><use transform="matrix(0.015190972222222224,0,0,0.015190972222222224,56.00911458333334,0)" xlink:href="#am"/><use transform="matrix(0.015190972222222224,0,0,0.015190972222222224,74.67881944444446,0)" xlink:href="#ai"/><use transform="matrix(0.015190972222222224,0,0,0.015190972222222224,93.34852430555557,0)" xlink:href="#aG"/><use transform="matrix(0.015190972222222224,0,0,0.015190972222222224,112.01822916666669,0)" xlink:href="#an"/><use transform="matrix(0.015190972222222224,0,0,0.015190972222222224,130.6879340277778,0)" xlink:href="#aG"/><use transform="matrix(0.015190972222222224,0,0,0.015190972222222224,149.3576388888889,0)" xlink:href="#ah"/><use transform="matrix(0.015190972222222224,0,0,0.015190972222222224,168.02734375000003,0)" xlink:href="#ai"/><use transform="matrix(0.015190972222222224,0,0,0.015190972222222224,186.69704861111114,0)" xlink:href="#aj"/><use transform="matrix(0.015190972222222224,0,0,0.015190972222222224,205.36675347222226,0)" xlink:href="#ak"/><use transform="matrix(0.015190972222222224,0,0,0.015190972222222224,224.03645833333337,0)" xlink:href="#al"/><use transform="matrix(0.015190972222222224,0,0,0.015190972222222224,242.70616319444449,0)" xlink:href="#am"/><use transform="matrix(0.015190972222222224,0,0,0.015190972222222224,261.3758680555556,0)" xlink:href="#an"/><use transform="matrix(0.015190972222222224,0,0,0.015190972222222224,280.04557291666674,0)" xlink:href="#aK"/><use transform="matrix(0.015190972222222224,0,0,0.015190972222222224,298.7152777777778,0)" xlink:href="#aM"/></g><g id="r"><use transform="matrix(0.015190972222222224,0,0,0.015190972222222224,0,0)" xlink:href="#aE"/><use transform="matrix(0.015190972222222224,0,0,0.015190972222222224,18.669704861111114,0)" xlink:href="#aj"/><use transform="matrix(0.015190972222222224,0,0,0.015190972222222224,37.33940972222223,0)" xlink:href="#aF"/><use transform="matrix(0.015190972222222224,0,0,0.015190972222222224,56.00911458333334,0)" xlink:href="#am"/><use transform="matrix(0.015190972222222224,0,0,0.015190972222222224,74.67881944444446,0)" xlink:href="#ai"/><use transform="matrix(0.015190972222222224,0,0,0.015190972222222224,93.34852430555557,0)" xlink:href="#aG"/><use transform="matrix(0.015190972222222224,0,0,0.015190972222222224,112.01822916666669,0)" xlink:href="#an"/><use transform="matrix(0.015190972222222224,0,0,0.015190972222222224,130.6879340277778,0)" xlink:href="#aG"/><use transform="matrix(0.015190972222222224,0,0,0.015190972222222224,149.3576388888889,0)" xlink:href="#ah"/><use transform="matrix(0.015190972222222224,0,0,0.015190972222222224,168.02734375000003,0)" xlink:href="#ai"/><use transform="matrix(0.015190972222222224,0,0,0.015190972222222224,186.69704861111114,0)" xlink:href="#aj"/><use transform="matrix(0.015190972222222224,0,0,0.015190972222222224,205.36675347222226,0)" xlink:href="#ak"/><use transform="matrix(0.015190972222222224,0,0,0.015190972222222224,224.03645833333337,0)" xlink:href="#al"/><use transform="matrix(0.015190972222222224,0,0,0.015190972222222224,242.70616319444449,0)" xlink:href="#am"/><use transform="matrix(0.015190972222222224,0,0,0.015190972222222224,261.3758680555556,0)" xlink:href="#an"/><use transform="matrix(0.015190972222222224,0,0,0.015190972222222224,280.04557291666674,0)" xlink:href="#ao"/><use transform="matrix(0.015190972222222224,0,0,0.015190972222222224,298.7152777777778,0)" xlink:href="#aM"/></g><g id="s"><use transform="matrix(0.015190972222222224,0,0,0.015190972222222224,0,0)" xlink:href="#aE"/><use transform="matrix(0.015190972222222224,0,0,0.015190972222222224,18.669704861111114,0)" xlink:href="#aj"/><use transform="matrix(0.015190972222222224,0,0,0.015190972222222224,37.33940972222223,0)" xlink:href="#aF"/><use transform="matrix(0.015190972222222224,0,0,0.015190972222222224,56.00911458333334,0)" xlink:href="#am"/><use transform="matrix(0.015190972222222224,0,0,0.015190972222222224,74.67881944444446,0)" xlink:href="#ai"/><use transform="matrix(0.015190972222222224,0,0,0.015190972222222224,93.34852430555557,0)" xlink:href="#aG"/><use transform="matrix(0.015190972222222224,0,0,0.015190972222222224,112.01822916666669,0)" xlink:href="#an"/><use transform="matrix(0.015190972222222224,0,0,0.015190972222222224,130.6879340277778,0)" xlink:href="#aG"/><use transform="matrix(0.015190972222222224,0,0,0.015190972222222224,149.3576388888889,0)" xlink:href="#ah"/><use transform="matrix(0.015190972222222224,0,0,0.015190972222222224,168.02734375000003,0)" xlink:href="#ai"/><use transform="matrix(0.015190972222222224,0,0,0.015190972222222224,186.69704861111114,0)" xlink:href="#aj"/><use transform="matrix(0.015190972222222224,0,0,0.015190972222222224,205.36675347222226,0)" xlink:href="#ak"/><use transform="matrix(0.015190972222222224,0,0,0.015190972222222224,224.03645833333337,0)" xlink:href="#al"/><use transform="matrix(0.015190972222222224,0,0,0.015190972222222224,242.70616319444449,0)" xlink:href="#am"/><use transform="matrix(0.015190972222222224,0,0,0.015190972222222224,261.3758680555556,0)" xlink:href="#an"/><use transform="matrix(0.015190972222222224,0,0,0.015190972222222224,280.04557291666674,0)" xlink:href="#aK"/><use transform="matrix(0.015190972222222224,0,0,0.015190972222222224,298.7152777777778,0)" xlink:href="#aL"/></g><g id="t"><use transform="matrix(0.015190972222222224,0,0,0.015190972222222224,0,0)" xlink:href="#ag"/><use transform="matrix(0.015190972222222224,0,0,0.015190972222222224,18.669704861111114,0)" xlink:href="#ah"/><use transform="matrix(0.015190972222222224,0,0,0.015190972222222224,37.33940972222223,0)" xlink:href="#ai"/><use transform="matrix(0.015190972222222224,0,0,0.015190972222222224,56.00911458333334,0)" xlink:href="#aj"/><use transform="matrix(0.015190972222222224,0,0,0.015190972222222224,74.67881944444446,0)" xlink:href="#ak"/><use transform="matrix(0.015190972222222224,0,0,0.015190972222222224,93.34852430555557,0)" xlink:href="#al"/><use transform="matrix(0.015190972222222224,0,0,0.015190972222222224,112.01822916666669,0)" xlink:href="#am"/><use transform="matrix(0.015190972222222224,0,0,0.015190972222222224,130.6879340277778,0)" xlink:href="#an"/><use transform="matrix(0.015190972222222224,0,0,0.015190972222222224,149.3576388888889,0)" xlink:href="#aK"/></g><path d="M802-711c201 25 350 118 350 331C1152-95 921 0 634 0H162v-1349c401 9 908-74 908 327 0 184-111 275-268 311zm-224-69c174-2 300-51 300-218 0-163-124-198-302-198H353v416h225zM353-153c281-2 612 44 606-244-5-271-329-233-606-234v478" id="aN"/><g id="u"><use transform="matrix(0.013020833333333334,0,0,0.013020833333333334,0,0)" xlink:href="#ap"/><use transform="matrix(0.013020833333333334,0,0,0.013020833333333334,16.002604166666668,0)" xlink:href="#aq"/><use transform="matrix(0.013020833333333334,0,0,0.013020833333333334,32.005208333333336,0)" xlink:href="#ar"/><use transform="matrix(0.013020833333333334,0,0,0.013020833333333334,48.0078125,0)" xlink:href="#z"/><use transform="matrix(0.013020833333333334,0,0,0.013020833333333334,64.01041666666667,0)" xlink:href="#A"/><use transform="matrix(0.013020833333333334,0,0,0.013020833333333334,80.01302083333334,0)" xlink:href="#C"/><use transform="matrix(0.013020833333333334,0,0,0.013020833333333334,96.01562500000001,0)" xlink:href="#y"/><use transform="matrix(0.013020833333333334,0,0,0.013020833333333334,112.0182291666667,0)" xlink:href="#w"/><use transform="matrix(0.013020833333333334,0,0,0.013020833333333334,128.02083333333334,0)" xlink:href="#aq"/><use transform="matrix(0.013020833333333334,0,0,0.013020833333333334,144.0234375,0)" xlink:href="#x"/><use transform="matrix(0.013020833333333334,0,0,0.013020833333333334,160.02604166666666,0)" xlink:href="#aN"/><use transform="matrix(0.013020833333333334,0,0,0.013020833333333334,176.02864583333331,0)" xlink:href="#at"/><use transform="matrix(0.013020833333333334,0,0,0.013020833333333334,192.03124999999997,0)" xlink:href="#au"/><use transform="matrix(0.013020833333333334,0,0,0.013020833333333334,208.03385416666663,0)" xlink:href="#av"/></g></defs></g></svg>